<svg xmlns="http://www.w3.org/2000/svg" viewBox="0 0 192 192" role="img" aria-label="Beer Journal">
  <rect width="192" height="192" rx="44" fill="#ffffff"/>
  <rect x="30" y="30" width="132" height="132" rx="38" fill="#f7f7f5" stroke="#e5e6e5" stroke-width="2"/>
  <path d="M70 58h50v60c0 19-11 31-25 31s-25-12-25-31V58Z" fill="#fff7ea" stroke="#18191b" stroke-linejoin="round" stroke-width="7"/>
  <path d="M75 91h40v27c0 14-8 24-20 24s-20-10-20-24V91Z" fill="#f4a340"/>
  <path d="M120 75h12c13 0 21 9 21 21s-8 21-21 21h-12" fill="none" stroke="#18191b" stroke-linecap="round" stroke-width="7"/>
  <path d="M75 61c0-9 6-15 14-15 6 0 10 3 13 8 3-5 7-8 13-8 8 0 14 6 14 15" fill="none" stroke="#18191b" stroke-linecap="round" stroke-width="6"/>
  <circle cx="132" cy="52" r="6" fill="#f4a340"/>
</svg>
