<svg xmlns="http://www.w3.org/2000/svg" width="192" height="192" viewBox="0 0 192 192" role="img" aria-label="Beer Journal">
  <rect width="192" height="192" rx="44" fill="#ffffff"/>
  <rect x="28" y="28" width="136" height="136" rx="37" fill="#f7f7f5"/>
  <path d="M71 59h48v53c0 22-10 38-24 38s-24-16-24-38V59Z" fill="#f4a340"/>
  <path d="M119 76h11c13 0 21 9 21 21s-8 21-21 21h-11" fill="none" stroke="#18191b" stroke-linecap="round" stroke-width="9"/>
  <path d="M74 61c0-12 8-20 17-20 5 0 9 2 12 6 3-4 7-6 12-6 8 0 14 7 14 17" fill="#fff" stroke="#fff" stroke-linecap="round" stroke-linejoin="round" stroke-width="10"/>
  <path d="M79 104h32" stroke="#18191b" stroke-linecap="round" stroke-width="7" opacity=".72"/>
  <circle cx="128" cy="53" r="7" fill="#5b8cff"/>
</svg>
