<svg width="1600" height="620" viewBox="0 0 1600 620" fill="none" xmlns="http://www.w3.org/2000/svg" role="img" aria-labelledby="title desc">
  <title id="title">Beer Journal — 你的本地啤酒日志</title>
  <desc id="desc">暖白与琥珀色背景上的 Beer Journal 产品头图。</desc>
  <rect width="1600" height="620" rx="36" fill="#F7F3EC"/>
  <circle cx="1420" cy="84" r="230" fill="#F3C477" fill-opacity="0.28"/>
  <circle cx="1500" cy="520" r="310" fill="#BFE2D0" fill-opacity="0.36"/>
  <path d="M0 486C238 406 356 560 606 494C856 428 1020 424 1182 500C1334 570 1452 552 1600 482V620H0V486Z" fill="#EAD5AC" fill-opacity="0.46"/>
  <g transform="translate(1080 128)">
    <rect x="0" y="14" width="250" height="332" rx="36" fill="#FFFDF9" stroke="#E6D6B8" stroke-width="8"/>
    <rect x="24" y="52" width="202" height="244" rx="22" fill="#F8F5EF"/>
    <rect x="48" y="78" width="154" height="16" rx="8" fill="#D9D1C4"/>
    <rect x="48" y="116" width="112" height="12" rx="6" fill="#E6DED2"/>
    <rect x="48" y="160" width="154" height="68" rx="18" fill="#FBE5BC"/>
    <circle cx="78" cy="194" r="18" fill="#EAA33C"/>
    <rect x="108" y="180" width="68" height="10" rx="5" fill="#8D7B66"/>
    <rect x="108" y="200" width="50" height="8" rx="4" fill="#C3B8A8"/>
    <rect x="48" y="252" width="68" height="12" rx="6" fill="#EAA33C"/>
    <rect x="130" y="252" width="72" height="12" rx="6" fill="#D4EBDD"/>
    <path d="M125 0V-16C125-32 112-44 96-44H72" stroke="#6B5844" stroke-width="12" stroke-linecap="round"/>
    <path d="M125 0V-16C125-32 138-44 154-44H178" stroke="#6B5844" stroke-width="12" stroke-linecap="round"/>
  </g>
  <g transform="translate(126 130)">
    <rect width="96" height="96" rx="28" fill="#F4B24B"/>
    <path d="M32 28H64L70 42V70C70 78 64 84 56 84H40C32 84 26 78 26 70V42L32 28Z" fill="#FFF8EA" stroke="#8A5B24" stroke-width="5"/>
    <path d="M26 42H70" stroke="#8A5B24" stroke-width="5"/>
    <path d="M74 38C88 38 88 58 74 58" stroke="#8A5B24" stroke-width="5" stroke-linecap="round"/>
    <path d="M43 20C37 13 45 10 43 4M57 20C51 13 59 10 57 4" stroke="#FFF8EA" stroke-width="5" stroke-linecap="round"/>
  </g>
  <text x="126" y="304" fill="#1D2421" font-family="Arial, 'Microsoft YaHei', sans-serif" font-size="74" font-weight="800" letter-spacing="2">Beer Journal</text>
  <text x="130" y="374" fill="#8A5B24" font-family="Arial, 'Microsoft YaHei', sans-serif" font-size="36" font-weight="700">个人啤酒日志 · 离线优先 · 记录在本地</text>
  <text x="130" y="430" fill="#5F675F" font-family="Arial, 'Microsoft YaHei', sans-serif" font-size="24">把喝过的每一杯，变成以后想翻看的回忆。</text>
  <g transform="translate(130 494)">
    <rect width="148" height="44" rx="22" fill="#1D2421"/>
    <text x="74" y="29" text-anchor="middle" fill="#FFFDF9" font-family="Arial, 'Microsoft YaHei', sans-serif" font-size="18" font-weight="700">LOCAL-FIRST</text>
    <rect x="164" width="126" height="44" rx="22" fill="#D4EBDD"/>
    <text x="227" y="29" text-anchor="middle" fill="#2D674B" font-family="Arial, 'Microsoft YaHei', sans-serif" font-size="18" font-weight="700">ANDROID</text>
    <rect x="306" width="132" height="44" rx="22" fill="#F4B24B"/>
    <text x="372" y="29" text-anchor="middle" fill="#5C3A10" font-family="Arial, 'Microsoft YaHei', sans-serif" font-size="18" font-weight="700">VERSION 1.0</text>
  </g>
</svg>
